<mxfile host="app.diagrams.net" modified="2023-08-23T18:44:01.979Z" agent="Mozilla/5.0 (Windows NT 10.0; Win64; x64) AppleWebKit/537.36 (KHTML, like Gecko) Chrome/115.0.0.0 Safari/537.36 Edg/115.0.1901.203" version="21.6.9" etag="3gHHBUEkb-7ruSpiBPrG" type="github">
  <diagram name="PÃ¡gina-1" id="srEtABisUnwO_pUkHepn">
    <mxGraphModel>
      <root>
        <mxCell id="0" />
        <mxCell id="1" parent="0" />
      </root>
    </mxGraphModel>
  </diagram>
</mxfile>
